<svg width="1354" height="3363" viewBox="0 0 1354 3363" fill="none" xmlns="http://www.w3.org/2000/svg">
<path d="M720.833 694.635C685.788 962.802 643.741 1422.57 632.523 1922.88C679.327 1785.98 754.254 1615.89 860.528 1475.64C864.55 1430.18 878.708 1393.97 899.795 1365.55C923.045 1334.22 954.228 1313.03 987.981 1299.23C1055.15 1271.75 1133.67 1273 1185.45 1282.36L1185.42 1282.51L1195.84 1284.21L1193.19 1295.86L1193.41 1295.92C1179.58 1346.68 1146.92 1418.1 1093.21 1466.91C1066.23 1491.43 1033.68 1510.46 995.395 1517.97C963.061 1524.31 927.207 1522.31 887.895 1509.15C746.798 1699.13 663.174 1944.29 630.08 2078.65C626.227 2516.44 648.261 2972.85 720.537 3350.63L658.659 3362.47C492.069 2491.7 589.277 1215.14 658.364 686.471L720.833 694.635Z" fill="#7DCE82"/>
<path d="M577.59 101.671C615.934 94.9098 669.798 218.616 697.898 377.977C698.668 382.347 699.409 386.697 700.125 391.027C702.641 383.681 705.254 376.28 707.963 368.836C763.309 216.776 837.835 104.302 874.423 117.619C911.011 130.936 895.805 265 840.46 417.061C830.473 444.499 819.86 470.649 808.96 495.003C815.773 489.021 822.742 483.037 829.854 477.069C953.815 373.053 1074.6 312.911 1099.62 342.738C1122.55 370.06 1057.18 463.392 950.76 558.824C952.195 558.565 953.634 558.309 955.075 558.055C1114.44 529.955 1249.1 538.26 1255.87 576.605C1262.63 614.949 1138.92 668.813 979.559 696.913C972.186 698.213 964.866 699.434 957.609 700.579C1099.91 755.042 1202.56 824.891 1189.8 859.936C1176.82 895.597 1049.13 882.053 901.873 830.097C906.672 835.611 911.469 841.224 916.257 846.929C1020.27 970.89 1080.41 1091.67 1050.59 1116.7C1020.76 1141.72 912.26 1061.52 808.245 937.562C802.705 930.96 797.29 924.367 792.006 917.797C792.738 921.723 793.455 925.672 794.156 929.643C822.255 1089 813.95 1223.67 775.606 1230.43C737.261 1237.2 683.398 1113.49 655.298 954.128C654.717 950.834 654.153 947.552 653.603 944.28C649.916 955.414 646.002 966.692 641.861 978.07C586.515 1130.13 511.989 1242.6 475.401 1229.29C438.813 1215.97 454.019 1081.91 509.364 929.845C513.324 918.964 517.383 908.287 521.519 897.843C516.94 901.803 512.295 905.761 507.586 909.712C383.625 1013.73 262.847 1073.87 237.819 1044.04C212.792 1014.22 292.993 905.716 416.953 801.7C419.918 799.213 422.881 796.751 425.84 794.314C418.142 795.826 410.346 797.28 402.462 798.671C243.101 826.77 108.432 818.465 101.671 780.121C94.9098 741.776 218.616 687.912 377.977 659.813C399.115 656.086 419.818 652.998 439.846 650.537C425.734 645.991 411.367 641.071 396.836 635.782C244.776 580.437 132.302 505.91 145.619 469.322C158.936 432.734 293.001 447.94 445.061 503.286C447.995 504.353 450.913 505.429 453.817 506.511C451.333 503.606 448.849 500.675 446.369 497.719C342.354 373.758 282.212 252.98 312.039 227.952C341.865 202.924 450.366 283.125 554.381 407.086C556.751 409.91 559.098 412.734 561.422 415.554C560.609 411.218 559.814 406.854 559.04 402.462C530.94 243.101 539.245 108.432 577.59 101.671Z" fill="#FF8360"/>
<circle cx="676.598" cy="666.053" r="156" transform="rotate(-10 676.598 666.053)" fill="#E8E288"/>
</svg>
